<svg width="375" height="85" viewBox="0 0 375 85" fill="none" xmlns="http://www.w3.org/2000/svg">
<g filter="url(#filter0_b_1_386)">
<rect width="375" height="85" rx="20" fill="white" fill-opacity="0.7"/>
<rect x="1" y="1" width="373" height="83" rx="19" stroke="url(#paint0_linear_1_386)" stroke-opacity="0.6" stroke-width="2"/>
<path d="M15.224 51V48.768C16.248 47.92 17.24 47.08 18.2 46.248C19.176 45.416 20.04 44.592 20.792 43.776C21.56 42.96 22.168 42.168 22.616 41.4C23.08 40.616 23.312 39.856 23.312 39.12C23.312 38.432 23.12 37.824 22.736 37.296C22.368 36.768 21.752 36.504 20.888 36.504C20.008 36.504 19.344 36.792 18.896 37.368C18.448 37.944 18.224 38.64 18.224 39.456H15.248C15.28 38.224 15.552 37.2 16.064 36.384C16.576 35.552 17.256 34.936 18.104 34.536C18.952 34.12 19.904 33.912 20.96 33.912C22.672 33.912 24 34.384 24.944 35.328C25.904 36.256 26.384 37.464 26.384 38.952C26.384 39.88 26.168 40.784 25.736 41.664C25.32 42.544 24.768 43.392 24.08 44.208C23.392 45.024 22.648 45.792 21.848 46.512C21.048 47.216 20.272 47.872 19.52 48.48H26.792V51H15.224ZM36.812 51V47.88H28.532V45.432L36.404 34.2H39.884V45.216H42.092V47.88H39.884V51H36.812ZM31.82 45.216H37.004V37.584L31.82 45.216ZM43.427 53.664L49.427 32.352H52.427L46.403 53.664H43.427ZM55.5686 51L61.9046 36.816H53.6246V34.2H65.0726V36.384L58.7606 51H55.5686ZM64.9376 53.784L66.3056 47.808H69.2816L66.9536 53.784H64.9376ZM83.003 51.288C81.899 51.288 80.899 51.096 80.003 50.712C79.107 50.312 78.387 49.704 77.843 48.888C77.299 48.072 77.011 47.048 76.979 45.816H80.003C80.019 46.632 80.283 47.32 80.795 47.88C81.323 48.424 82.059 48.696 83.003 48.696C83.899 48.696 84.587 48.448 85.067 47.952C85.547 47.456 85.787 46.832 85.787 46.08C85.787 45.2 85.467 44.536 84.827 44.088C84.203 43.624 83.395 43.392 82.403 43.392H81.155V40.872H82.427C83.243 40.872 83.923 40.68 84.467 40.296C85.011 39.912 85.283 39.344 85.283 38.592C85.283 37.968 85.075 37.472 84.659 37.104C84.259 36.72 83.699 36.528 82.979 36.528C82.195 36.528 81.579 36.76 81.131 37.224C80.699 37.688 80.459 38.256 80.411 38.928H77.411C77.475 37.376 78.011 36.152 79.019 35.256C80.043 34.36 81.363 33.912 82.979 33.912C84.131 33.912 85.099 34.12 85.883 34.536C86.683 34.936 87.283 35.472 87.683 36.144C88.099 36.816 88.307 37.56 88.307 38.376C88.307 39.32 88.043 40.12 87.515 40.776C87.003 41.416 86.363 41.848 85.595 42.072C86.539 42.264 87.307 42.728 87.899 43.464C88.491 44.184 88.787 45.096 88.787 46.2C88.787 47.128 88.563 47.976 88.115 48.744C87.667 49.512 87.011 50.128 86.147 50.592C85.299 51.056 84.251 51.288 83.003 51.288ZM98.1159 51.288C96.8519 51.288 95.7879 51.056 94.9239 50.592C94.0599 50.128 93.3639 49.504 92.8359 48.72C92.3079 47.936 91.9239 47.064 91.6839 46.104C91.4599 45.144 91.3479 44.16 91.3479 43.152C91.3479 41.28 91.6119 39.656 92.1399 38.28C92.6679 36.888 93.4279 35.816 94.4199 35.064C95.4119 34.296 96.6119 33.912 98.0199 33.912C99.1719 33.912 100.148 34.144 100.948 34.608C101.764 35.056 102.396 35.648 102.844 36.384C103.292 37.12 103.556 37.912 103.636 38.76H100.78C100.636 38.024 100.324 37.456 99.8439 37.056C99.3639 36.656 98.7479 36.456 97.9959 36.456C96.9239 36.456 96.0599 36.952 95.4039 37.944C94.7479 38.92 94.3959 40.416 94.3479 42.432C94.7319 41.776 95.3079 41.232 96.0759 40.8C96.8439 40.368 97.6999 40.152 98.6439 40.152C99.5719 40.152 100.444 40.376 101.26 40.824C102.076 41.272 102.732 41.904 103.228 42.72C103.74 43.536 103.996 44.496 103.996 45.6C103.996 46.608 103.748 47.544 103.252 48.408C102.772 49.272 102.084 49.968 101.188 50.496C100.308 51.024 99.2839 51.288 98.1159 51.288ZM97.9479 48.648C98.8439 48.648 99.5799 48.376 100.156 47.832C100.748 47.272 101.044 46.568 101.044 45.72C101.044 44.824 100.748 44.104 100.156 43.56C99.5639 43.016 98.8119 42.744 97.8999 42.744C97.3079 42.744 96.7719 42.88 96.2919 43.152C95.8279 43.408 95.4599 43.76 95.1879 44.208C94.9159 44.64 94.7799 45.128 94.7799 45.672C94.7799 46.536 95.0759 47.248 95.6679 47.808C96.2759 48.368 97.0359 48.648 97.9479 48.648ZM112.57 51.288C111.338 51.288 110.274 51.072 109.378 50.64C108.498 50.208 107.802 49.616 107.29 48.864C106.794 48.096 106.506 47.232 106.426 46.272H109.426C109.57 46.96 109.922 47.536 110.482 48C111.042 48.448 111.738 48.672 112.57 48.672C113.466 48.672 114.194 48.344 114.754 47.688C115.33 47.032 115.618 46.216 115.618 45.24C115.618 44.232 115.33 43.432 114.754 42.84C114.194 42.248 113.482 41.952 112.618 41.952C111.898 41.952 111.274 42.128 110.746 42.48C110.218 42.832 109.842 43.272 109.618 43.8H106.666L108.106 34.2H117.418V36.888H110.41L109.642 40.776C109.994 40.392 110.474 40.08 111.082 39.84C111.69 39.584 112.37 39.456 113.122 39.456C114.322 39.456 115.322 39.728 116.122 40.272C116.922 40.8 117.53 41.504 117.946 42.384C118.362 43.248 118.57 44.192 118.57 45.216C118.57 46.384 118.314 47.424 117.802 48.336C117.306 49.248 116.602 49.968 115.69 50.496C114.794 51.024 113.754 51.288 112.57 51.288ZM132.38 51C131.132 51 130.132 50.696 129.38 50.088C128.628 49.48 128.252 48.4 128.252 46.848V41.664H126.212V39.096H128.252L128.612 35.904H131.324V39.096H134.54V41.664H131.324V46.872C131.324 47.448 131.444 47.848 131.684 48.072C131.94 48.28 132.372 48.384 132.98 48.384H134.468V51H132.38ZM137.177 51V39.096H139.913L140.201 41.328C140.633 40.56 141.217 39.952 141.953 39.504C142.705 39.04 143.585 38.808 144.593 38.808V42.048H143.729C143.057 42.048 142.457 42.152 141.929 42.36C141.401 42.568 140.985 42.928 140.681 43.44C140.393 43.952 140.249 44.664 140.249 45.576V51H137.177ZM150.797 51.288C149.773 51.288 148.933 51.128 148.277 50.808C147.621 50.472 147.133 50.032 146.813 49.488C146.493 48.944 146.333 48.344 146.333 47.688C146.333 46.584 146.765 45.688 147.629 45C148.493 44.312 149.789 43.968 151.517 43.968H154.541V43.68C154.541 42.864 154.309 42.264 153.845 41.88C153.381 41.496 152.805 41.304 152.117 41.304C151.493 41.304 150.949 41.456 150.485 41.76C150.021 42.048 149.733 42.48 149.621 43.056H146.621C146.701 42.192 146.989 41.44 147.485 40.8C147.997 40.16 148.653 39.672 149.453 39.336C150.253 38.984 151.149 38.808 152.141 38.808C153.837 38.808 155.173 39.232 156.149 40.08C157.125 40.928 157.613 42.128 157.613 43.68V51H154.997L154.709 49.08C154.357 49.72 153.861 50.248 153.221 50.664C152.597 51.08 151.789 51.288 150.797 51.288ZM151.493 48.888C152.373 48.888 153.053 48.6 153.533 48.024C154.029 47.448 154.341 46.736 154.469 45.888H151.853C151.037 45.888 150.453 46.04 150.101 46.344C149.749 46.632 149.573 46.992 149.573 47.424C149.573 47.888 149.749 48.248 150.101 48.504C150.453 48.76 150.917 48.888 151.493 48.888ZM160.544 51V39.096H163.256L163.496 41.112C163.864 40.408 164.392 39.848 165.08 39.432C165.784 39.016 166.608 38.808 167.552 38.808C169.024 38.808 170.168 39.272 170.984 40.2C171.8 41.128 172.208 42.488 172.208 44.28V51H169.136V44.568C169.136 43.544 168.928 42.76 168.512 42.216C168.096 41.672 167.448 41.4 166.568 41.4C165.704 41.4 164.992 41.704 164.432 42.312C163.888 42.92 163.616 43.768 163.616 44.856V51H160.544ZM180.066 51.288C179.01 51.288 178.082 51.12 177.282 50.784C176.482 50.432 175.842 49.952 175.362 49.344C174.882 48.736 174.594 48.032 174.498 47.232H177.594C177.69 47.696 177.946 48.096 178.362 48.432C178.794 48.752 179.346 48.912 180.018 48.912C180.69 48.912 181.178 48.776 181.482 48.504C181.802 48.232 181.962 47.92 181.962 47.568C181.962 47.056 181.738 46.712 181.29 46.536C180.842 46.344 180.218 46.16 179.418 45.984C178.906 45.872 178.386 45.736 177.858 45.576C177.33 45.416 176.842 45.216 176.394 44.976C175.962 44.72 175.61 44.4 175.338 44.016C175.066 43.616 174.93 43.128 174.93 42.552C174.93 41.496 175.346 40.608 176.178 39.888C177.026 39.168 178.21 38.808 179.73 38.808C181.138 38.808 182.258 39.136 183.09 39.792C183.938 40.448 184.442 41.352 184.602 42.504H181.698C181.522 41.624 180.858 41.184 179.706 41.184C179.13 41.184 178.682 41.296 178.362 41.52C178.058 41.744 177.906 42.024 177.906 42.36C177.906 42.712 178.138 42.992 178.602 43.2C179.066 43.408 179.682 43.6 180.45 43.776C181.282 43.968 182.042 44.184 182.73 44.424C183.434 44.648 183.994 44.992 184.41 45.456C184.826 45.904 185.034 46.552 185.034 47.4C185.05 48.136 184.858 48.8 184.458 49.392C184.058 49.984 183.482 50.448 182.73 50.784C181.978 51.12 181.09 51.288 180.066 51.288ZM191.859 51.288C190.835 51.288 189.995 51.128 189.339 50.808C188.683 50.472 188.195 50.032 187.875 49.488C187.555 48.944 187.395 48.344 187.395 47.688C187.395 46.584 187.827 45.688 188.691 45C189.555 44.312 190.851 43.968 192.579 43.968H195.603V43.68C195.603 42.864 195.371 42.264 194.907 41.88C194.443 41.496 193.867 41.304 193.179 41.304C192.555 41.304 192.011 41.456 191.547 41.76C191.083 42.048 190.795 42.48 190.683 43.056H187.683C187.763 42.192 188.051 41.44 188.547 40.8C189.059 40.16 189.715 39.672 190.515 39.336C191.315 38.984 192.211 38.808 193.203 38.808C194.899 38.808 196.235 39.232 197.211 40.08C198.187 40.928 198.675 42.128 198.675 43.68V51H196.059L195.771 49.08C195.419 49.72 194.923 50.248 194.283 50.664C193.659 51.08 192.851 51.288 191.859 51.288ZM192.555 48.888C193.435 48.888 194.115 48.6 194.595 48.024C195.091 47.448 195.403 46.736 195.531 45.888H192.915C192.099 45.888 191.515 46.04 191.163 46.344C190.811 46.632 190.635 46.992 190.635 47.424C190.635 47.888 190.811 48.248 191.163 48.504C191.515 48.76 191.979 48.888 192.555 48.888ZM207.439 51.288C206.223 51.288 205.151 51.024 204.223 50.496C203.295 49.968 202.559 49.232 202.015 48.288C201.487 47.344 201.223 46.264 201.223 45.048C201.223 43.832 201.487 42.752 202.015 41.808C202.559 40.864 203.295 40.128 204.223 39.6C205.151 39.072 206.223 38.808 207.439 38.808C208.959 38.808 210.239 39.208 211.279 40.008C212.319 40.792 212.983 41.88 213.271 43.272H210.031C209.871 42.696 209.551 42.248 209.071 41.928C208.607 41.592 208.055 41.424 207.415 41.424C206.567 41.424 205.847 41.744 205.255 42.384C204.663 43.024 204.367 43.912 204.367 45.048C204.367 46.184 204.663 47.072 205.255 47.712C205.847 48.352 206.567 48.672 207.415 48.672C208.055 48.672 208.607 48.512 209.071 48.192C209.551 47.872 209.871 47.416 210.031 46.824H213.271C212.983 48.168 212.319 49.248 211.279 50.064C210.239 50.88 208.959 51.288 207.439 51.288ZM221.137 51C219.889 51 218.889 50.696 218.137 50.088C217.385 49.48 217.009 48.4 217.009 46.848V41.664H214.969V39.096H217.009L217.369 35.904H220.081V39.096H223.297V41.664H220.081V46.872C220.081 47.448 220.201 47.848 220.441 48.072C220.697 48.28 221.129 48.384 221.737 48.384H223.225V51H221.137ZM227.591 37.248C227.031 37.248 226.567 37.08 226.199 36.744C225.847 36.408 225.671 35.984 225.671 35.472C225.671 34.96 225.847 34.544 226.199 34.224C226.567 33.888 227.031 33.72 227.591 33.72C228.151 33.72 228.607 33.888 228.959 34.224C229.327 34.544 229.511 34.96 229.511 35.472C229.511 35.984 229.327 36.408 228.959 36.744C228.607 37.08 228.151 37.248 227.591 37.248ZM226.055 51V39.096H229.127V51H226.055ZM238.045 51.288C236.893 51.288 235.853 51.024 234.925 50.496C234.013 49.968 233.285 49.24 232.741 48.312C232.213 47.368 231.949 46.28 231.949 45.048C231.949 43.816 232.221 42.736 232.765 41.808C233.309 40.864 234.037 40.128 234.949 39.6C235.877 39.072 236.917 38.808 238.069 38.808C239.205 38.808 240.229 39.072 241.141 39.6C242.069 40.128 242.797 40.864 243.325 41.808C243.869 42.736 244.141 43.816 244.141 45.048C244.141 46.28 243.869 47.368 243.325 48.312C242.797 49.24 242.069 49.968 241.141 50.496C240.213 51.024 239.181 51.288 238.045 51.288ZM238.045 48.624C238.845 48.624 239.541 48.328 240.133 47.736C240.725 47.128 241.021 46.232 241.021 45.048C241.021 43.864 240.725 42.976 240.133 42.384C239.541 41.776 238.853 41.472 238.069 41.472C237.253 41.472 236.549 41.776 235.957 42.384C235.381 42.976 235.093 43.864 235.093 45.048C235.093 46.232 235.381 47.128 235.957 47.736C236.549 48.328 237.245 48.624 238.045 48.624ZM246.888 51V39.096H249.6L249.84 41.112C250.208 40.408 250.736 39.848 251.424 39.432C252.128 39.016 252.952 38.808 253.896 38.808C255.368 38.808 256.512 39.272 257.328 40.2C258.144 41.128 258.552 42.488 258.552 44.28V51H255.48V44.568C255.48 43.544 255.272 42.76 254.856 42.216C254.44 41.672 253.792 41.4 252.912 41.4C252.048 41.4 251.336 41.704 250.776 42.312C250.232 42.92 249.96 43.768 249.96 44.856V51H246.888ZM272.512 51C271.264 51 270.264 50.696 269.512 50.088C268.76 49.48 268.384 48.4 268.384 46.848V41.664H266.344V39.096H268.384L268.744 35.904H271.456V39.096H274.672V41.664H271.456V46.872C271.456 47.448 271.576 47.848 271.816 48.072C272.072 48.28 272.504 48.384 273.112 48.384H274.6V51H272.512ZM277.31 51V39.096H280.046L280.334 41.328C280.766 40.56 281.35 39.952 282.086 39.504C282.838 39.04 283.718 38.808 284.726 38.808V42.048H283.862C283.19 42.048 282.59 42.152 282.062 42.36C281.534 42.568 281.118 42.928 280.814 43.44C280.526 43.952 280.382 44.664 280.382 45.576V51H277.31ZM290.93 51.288C289.906 51.288 289.066 51.128 288.41 50.808C287.754 50.472 287.266 50.032 286.946 49.488C286.626 48.944 286.466 48.344 286.466 47.688C286.466 46.584 286.898 45.688 287.762 45C288.626 44.312 289.922 43.968 291.65 43.968H294.674V43.68C294.674 42.864 294.442 42.264 293.978 41.88C293.514 41.496 292.938 41.304 292.25 41.304C291.626 41.304 291.082 41.456 290.618 41.76C290.154 42.048 289.866 42.48 289.754 43.056H286.754C286.834 42.192 287.122 41.44 287.618 40.8C288.13 40.16 288.786 39.672 289.586 39.336C290.386 38.984 291.282 38.808 292.274 38.808C293.97 38.808 295.306 39.232 296.282 40.08C297.258 40.928 297.746 42.128 297.746 43.68V51H295.13L294.842 49.08C294.49 49.72 293.994 50.248 293.354 50.664C292.73 51.08 291.922 51.288 290.93 51.288ZM291.626 48.888C292.506 48.888 293.186 48.6 293.666 48.024C294.162 47.448 294.474 46.736 294.602 45.888H291.986C291.17 45.888 290.586 46.04 290.234 46.344C289.882 46.632 289.706 46.992 289.706 47.424C289.706 47.888 289.882 48.248 290.234 48.504C290.586 48.76 291.05 48.888 291.626 48.888ZM306.509 51.288C305.293 51.288 304.221 51.024 303.293 50.496C302.365 49.968 301.629 49.232 301.085 48.288C300.557 47.344 300.293 46.264 300.293 45.048C300.293 43.832 300.557 42.752 301.085 41.808C301.629 40.864 302.365 40.128 303.293 39.6C304.221 39.072 305.293 38.808 306.509 38.808C308.029 38.808 309.309 39.208 310.349 40.008C311.389 40.792 312.053 41.88 312.341 43.272H309.101C308.941 42.696 308.621 42.248 308.141 41.928C307.677 41.592 307.125 41.424 306.485 41.424C305.637 41.424 304.917 41.744 304.325 42.384C303.733 43.024 303.437 43.912 303.437 45.048C303.437 46.184 303.733 47.072 304.325 47.712C304.917 48.352 305.637 48.672 306.485 48.672C307.125 48.672 307.677 48.512 308.141 48.192C308.621 47.872 308.941 47.416 309.101 46.824H312.341C312.053 48.168 311.389 49.248 310.349 50.064C309.309 50.88 308.029 51.288 306.509 51.288ZM315.068 51V33.72H318.14V43.92L322.364 39.096H326.012L321.14 44.52L326.804 51H322.964L318.14 45.024V51H315.068ZM330.364 37.248C329.804 37.248 329.34 37.08 328.972 36.744C328.62 36.408 328.444 35.984 328.444 35.472C328.444 34.96 328.62 34.544 328.972 34.224C329.34 33.888 329.804 33.72 330.364 33.72C330.924 33.72 331.38 33.888 331.732 34.224C332.1 34.544 332.284 34.96 332.284 35.472C332.284 35.984 332.1 36.408 331.732 36.744C331.38 37.08 330.924 37.248 330.364 37.248ZM328.828 51V39.096H331.9V51H328.828ZM335.107 51V39.096H337.819L338.059 41.112C338.427 40.408 338.955 39.848 339.643 39.432C340.347 39.016 341.171 38.808 342.115 38.808C343.587 38.808 344.731 39.272 345.547 40.2C346.363 41.128 346.771 42.488 346.771 44.28V51H343.699V44.568C343.699 43.544 343.491 42.76 343.075 42.216C342.659 41.672 342.011 41.4 341.131 41.4C340.267 41.4 339.555 41.704 338.995 42.312C338.451 42.92 338.179 43.768 338.179 44.856V51H335.107ZM354.748 47.448C354.172 47.448 353.636 47.384 353.14 47.256L352.252 48.144C352.524 48.288 352.892 48.408 353.356 48.504C353.82 48.6 354.572 48.696 355.612 48.792C357.196 48.936 358.348 49.312 359.068 49.92C359.788 50.528 360.148 51.368 360.148 52.44C360.148 53.144 359.956 53.808 359.572 54.432C359.188 55.072 358.596 55.584 357.796 55.968C356.996 56.368 355.972 56.568 354.724 56.568C353.028 56.568 351.66 56.248 350.62 55.608C349.58 54.984 349.06 54.04 349.06 52.776C349.06 51.704 349.58 50.776 350.62 49.992C350.3 49.848 350.02 49.696 349.78 49.536C349.556 49.376 349.356 49.208 349.18 49.032V48.48L351.268 46.272C350.34 45.456 349.876 44.408 349.876 43.128C349.876 42.328 350.068 41.6 350.452 40.944C350.852 40.288 351.412 39.768 352.132 39.384C352.852 39 353.724 38.808 354.748 38.808C355.42 38.808 356.044 38.904 356.62 39.096H361.132V40.968L359.092 41.112C359.412 41.72 359.572 42.392 359.572 43.128C359.572 43.928 359.38 44.656 358.996 45.312C358.612 45.968 358.052 46.488 357.316 46.872C356.596 47.256 355.74 47.448 354.748 47.448ZM354.748 45.096C355.372 45.096 355.884 44.928 356.284 44.592C356.7 44.256 356.908 43.776 356.908 43.152C356.908 42.528 356.7 42.048 356.284 41.712C355.884 41.376 355.372 41.208 354.748 41.208C354.092 41.208 353.564 41.376 353.164 41.712C352.764 42.048 352.564 42.528 352.564 43.152C352.564 43.776 352.764 44.256 353.164 44.592C353.564 44.928 354.092 45.096 354.748 45.096ZM351.868 52.464C351.868 53.056 352.14 53.496 352.684 53.784C353.244 54.088 353.924 54.24 354.724 54.24C355.492 54.24 356.116 54.08 356.596 53.76C357.076 53.456 357.316 53.04 357.316 52.512C357.316 52.08 357.156 51.72 356.836 51.432C356.532 51.144 355.916 50.968 354.988 50.904C354.332 50.856 353.724 50.784 353.164 50.688C352.7 50.944 352.364 51.224 352.156 51.528C351.964 51.832 351.868 52.144 351.868 52.464Z" fill="#122038"/>
</g>
<defs>
<filter id="filter0_b_1_386" x="-19" y="-19" width="413" height="123" filterUnits="userSpaceOnUse" color-interpolation-filters="sRGB">
<feFlood flood-opacity="0" result="BackgroundImageFix"/>
<feGaussianBlur in="BackgroundImageFix" stdDeviation="9.5"/>
<feComposite in2="SourceAlpha" operator="in" result="effect1_backgroundBlur_1_386"/>
<feBlend mode="normal" in="SourceGraphic" in2="effect1_backgroundBlur_1_386" result="shape"/>
</filter>
<linearGradient id="paint0_linear_1_386" x1="133.413" y1="-57.9545" x2="211.363" y2="70.5219" gradientUnits="userSpaceOnUse">
<stop stop-color="white"/>
<stop offset="1" stop-color="white" stop-opacity="0"/>
</linearGradient>
</defs>
</svg>
